<?xml version="1.0" standalone="no"?><!DOCTYPE svg PUBLIC "-//W3C//DTD SVG 1.1//EN" "http://www.w3.org/Graphics/SVG/1.1/DTD/svg11.dtd"><svg t="1647709334824" class="icon" viewBox="0 0 1024 1024" version="1.1" xmlns="http://www.w3.org/2000/svg" p-id="43627" id="mx_n_1647709334829" data-spm-anchor-id="a313x.7781069.0.i8" xmlns:xlink="http://www.w3.org/1999/xlink" width="200" height="200"><defs><style type="text/css"></style></defs><path d="M634.8 348.7L307.4 535.4l82.4 47.3L716.6 396z" fill="#13227a" p-id="43628" data-spm-anchor-id="a313x.7781069.0.i15" class="selected"></path><path d="M389.2 677.2l-81.8-47.3v-94.5l82.4 47.3z" fill="#333333" p-id="43629"></path><path d="M716.6 396v94.5L389.2 677.2l0.6-94.5z" fill="#1296db" p-id="43630" data-spm-anchor-id="a313x.7781069.0.i12" class=""></path><path d="M389.2 297.3l-81.8 47.3 82.4 47.2 81.3-47.2z" fill="#212121" p-id="43631"></path><path d="M389.2 959.6l-81.8-47.2V344.6l82.4 47.2z" fill="#13227a" p-id="43632" data-spm-anchor-id="a313x.7781069.0.i10" class=""></path><path d="M471.1 344.6l-0.1 567.8-81.8 47.2 0.6-567.8z" fill="#1296db" p-id="43633" data-spm-anchor-id="a313x.7781069.0.i13" class=""></path><path d="M634.8 64.4L307.4 249.1l82.4 47.3 326.8-184.8z" fill="#13227a" p-id="43634" data-spm-anchor-id="a313x.7781069.0.i9" class="selected"></path><path d="M389.2 390.9l-81.8-47.3v-94.5l82.4 47.3z" fill="#13227a" p-id="43635" data-spm-anchor-id="a313x.7781069.0.i11" class="selected"></path><path d="M716.6 111.6v94.5L389.2 390.9l0.6-94.5z" fill="#1296db" p-id="43636" data-spm-anchor-id="a313x.7781069.0.i14" class=""></path></svg>